# xmcd
#
# Track frame offsets: 
#        150
#        16910
#        33540
#        48727
#        67695
#        85947
#        103260
#        113422
#        135157
#        155485
#        174815
#        188677
#        203310
#
# Disc length: 2968 seconds
#
# Revision: 2
# Processed by: cddbd v1.4PL0 Copyright (c) Steve Scherf et al.
# Submitted via: ExactAudioCopy v0.95a3
#
DISCID=930b960d
DTITLE=Mark O'Shea - None Of The Above
DYEAR=1996
DGENRE=Country
TTITLE0=World Weary Heart
TTITLE1=The Dreamer
TTITLE2=No Mail Today
TTITLE3=Four Years'
TTITLE4=Fortunate Son
TTITLE5=Short Attention Span
TTITLE6=The Swimming Song
TTITLE7=Just Another Drunken Love Song
TTITLE8=Mother Mary
TTITLE9=Under The Trees
TTITLE10=When I Was Your Age
TTITLE11=Don't Wanna See You
TTITLE12=How Much I Love You
EXTD=\nYEAR: 1996  ID3G:   2
EXTT0=
EXTT1=
EXTT2=
EXTT3=
EXTT4=
EXTT5=
EXTT6=
EXTT7=
EXTT8=
EXTT9=
EXTT10=
EXTT11=
EXTT12=
PLAYORDER=
